<?xml version="1.0" encoding="utf-8"?>
<!-- Generator: Adobe Illustrator 16.0.0, SVG Export Plug-In . SVG Version: 6.00 Build 0)  -->
<!DOCTYPE svg PUBLIC "-//W3C//DTD SVG 1.1//EN" "http://www.w3.org/Graphics/SVG/1.1/DTD/svg11.dtd">
<svg version="1.1" id="Layer_1" xmlns="http://www.w3.org/2000/svg" xmlns:xlink="http://www.w3.org/1999/xlink" x="0px" y="0px"
	 width="85.04px" height="85.04px" viewBox="0 0 85.04 85.04" enable-background="new 0 0 85.04 85.04" xml:space="preserve">
<g>
	<g>
		<path fill="#009444" d="M47.202,63.158c0,0-12.923-0.37-18.537-5.661c-4.469-4.212-6.016-10.892-11.079-14.854
			c-3.354-2.621-5.216-2.33-3.875-3.629c0.93-0.907,2.435-1.316,5.27-0.93c5.401,0.735,7.493,5.882,10.143,9.915
			c2.648,4.037,5.374,6.702,8.385,7.966C40.522,57.229,47.202,63.158,47.202,63.158z"/>
		<path fill="#39B54A" d="M43.035,58.558c0,0-12.433-3.537-16.576-10.047c-3.299-5.175-3.158-12.029-7.091-17.113
			c-2.605-3.368-4.481-3.543-2.866-4.471c1.126-0.651,2.686-0.679,5.337,0.392c5.05,2.037,5.821,7.544,7.398,12.104
			c1.574,4.561,3.562,7.811,6.171,9.778C38.019,51.167,43.035,58.558,43.035,58.558z"/>
		<g>
			<path fill="#FFFFFF" d="M42.555,66.306c0.292,0.021,16.732,0.362,21.465-15.798c2.688-9.187-5.094-16.953-10.176-24.362
				c-2.104-3.066-4.74-7.067-4.613-10.892c0.068-2.021,1.61-4.109,2.976-5.661c1.02-1.162-0.215-2.489-2.322-2.345
				c-7.25,0.489-11.165,5.313-12.045,12.708c-0.703,5.926,3.179,9.664,6.459,14.031c1.974,2.63,3.85,5.608,3.719,9.028
				c-0.1,2.543-2.69,5.125-5.113,5.426c-3.296,0.412-5.916-1.954-6.546-5.048c-0.421-2.078-0.289-4.631,0.173-6.697
				c0.812-3.602,2.274-5.325,1.017-8.967c-1.146-3.32-3.978-5.751-7.017-7.363c-1.26-0.67-2.612-1.455-4.058-1.834
				c-2.987-0.781-2.162,1.574-1.851,1.942c8.016,9.368-0.949,16.417-0.917,25.388C23.736,55.673,27.104,65.217,42.555,66.306z"/>
		</g>
		<g>
			<g>
				<path fill="#FFFFFF" d="M69.156,57.996c0,0.574-0.204,1.066-0.61,1.475s-0.897,0.611-1.474,0.611
					c-0.575,0-1.067-0.203-1.476-0.611c-0.407-0.408-0.611-0.9-0.611-1.475c0-0.577,0.204-1.067,0.611-1.476
					c0.408-0.408,0.9-0.611,1.476-0.611c0.576,0,1.067,0.203,1.474,0.611S69.156,57.419,69.156,57.996z M68.924,57.996
					c0-0.513-0.181-0.949-0.541-1.313c-0.362-0.361-0.8-0.542-1.313-0.542c-0.511,0-0.947,0.181-1.309,0.542
					c-0.362,0.363-0.542,0.8-0.542,1.313c0,0.51,0.18,0.948,0.542,1.31c0.361,0.363,0.798,0.545,1.309,0.545
					c0.514,0,0.951-0.182,1.313-0.545C68.743,58.944,68.924,58.506,68.924,57.996z M66.297,56.8h0.873
					c0.315,0,0.542,0.058,0.679,0.173c0.138,0.116,0.205,0.26,0.205,0.432c0,0.184-0.071,0.335-0.214,0.459
					c-0.104,0.088-0.256,0.147-0.455,0.177c0.089,0.042,0.153,0.081,0.19,0.114s0.095,0.103,0.173,0.212
					c0.079,0.106,0.139,0.198,0.18,0.271l0.229,0.408h-0.358l-0.218-0.37c-0.167-0.289-0.294-0.461-0.381-0.518
					c-0.087-0.058-0.229-0.086-0.427-0.086h-0.186v0.974h-0.291V56.8z M66.588,57.037v0.782h0.284c0.314,0,0.522-0.016,0.624-0.047
					c0.074-0.021,0.136-0.066,0.184-0.132c0.048-0.068,0.071-0.138,0.071-0.208c0-0.109-0.04-0.202-0.121-0.279
					c-0.082-0.076-0.287-0.116-0.616-0.116H66.588z"/>
			</g>
		</g>
	</g>
	<g>
		<polygon fill="#FFFFFF" points="15.615,74.863 17.686,72.815 18.287,72.815 18.287,72.346 17.48,72.346 14.979,74.81 
			14.979,72.815 15.7,72.815 15.7,72.346 13.729,72.346 13.729,72.815 14.425,72.815 14.425,77.726 15.708,77.726 15.708,77.256 
			14.979,77.256 14.979,74.997 17.111,77.355 17.432,77.726 18.396,77.726 18.396,77.256 17.796,77.256 		"/>
		<polygon fill="#FFFFFF" points="19.781,75.208 21.965,75.208 21.965,74.738 19.781,74.738 19.781,72.815 22.409,72.815 
			22.409,73.745 22.879,73.745 22.879,72.346 18.553,72.346 18.553,72.815 19.227,72.815 19.227,77.726 22.887,77.726 
			22.887,77.256 19.781,77.256 		"/>
		<path fill="#FFFFFF" d="M26.313,75.251c-0.265-0.249-0.762-0.463-1.476-0.634c-0.38-0.092-0.687-0.214-0.909-0.363
			c-0.212-0.145-0.314-0.351-0.314-0.631c0-0.242,0.097-0.443,0.296-0.612c0.195-0.166,0.447-0.25,0.751-0.25
			c0.185,0,0.361,0.015,0.524,0.042c0.153,0.026,0.296,0.089,0.422,0.186c0.061,0.047,0.111,0.104,0.152,0.17
			c0.042,0.069,0.077,0.141,0.104,0.21c0.026,0.07,0.045,0.139,0.055,0.201c0.01,0.063,0.015,0.116,0.015,0.153v0.162h0.531v-0.061
			c0-0.011-0.003-0.052-0.008-0.121c-0.005-0.068-0.016-0.155-0.031-0.26c-0.017-0.11-0.045-0.204-0.083-0.281
			c-0.037-0.074-0.074-0.138-0.109-0.189c-0.034-0.051-0.08-0.107-0.14-0.173c-0.098-0.107-0.196-0.189-0.295-0.245
			c-0.09-0.05-0.195-0.104-0.322-0.165c-0.123-0.054-0.254-0.089-0.389-0.105c-0.134-0.016-0.269-0.023-0.402-0.023
			c-0.44,0-0.821,0.13-1.131,0.386c-0.308,0.259-0.463,0.582-0.463,0.96c0,0.42,0.135,0.75,0.398,0.981
			c0.259,0.238,0.672,0.426,1.228,0.557c0.536,0.127,0.919,0.277,1.139,0.446c0.209,0.16,0.31,0.372,0.31,0.649
			c0,0.314-0.109,0.563-0.336,0.76c-0.229,0.2-0.516,0.303-0.851,0.303c-0.396,0-0.736-0.13-1.012-0.388
			c-0.279-0.254-0.414-0.538-0.414-0.868V75.8h-0.478v1.926h0.478v-0.576c0.056,0.07,0.116,0.136,0.181,0.195
			c0.109,0.102,0.234,0.188,0.375,0.258c0.271,0.133,0.561,0.2,0.862,0.2c0.488,0,0.905-0.146,1.24-0.433
			c0.338-0.29,0.509-0.654,0.509-1.083C26.72,75.853,26.583,75.505,26.313,75.251z"/>
		<path fill="#FFFFFF" d="M29.92,72.815h0.633v-0.47h-1.591l-1.695,4.91h-0.684v0.47h1.221v-0.409l-0.001-0.01l0.541-1.579h2.036
			l0.538,1.528h-0.633v0.47h1.863v-0.47H31.48L29.92,72.815z M28.51,75.258l0.859-2.502l0.853,2.502H28.51z"/>
		<polygon fill="#FFFFFF" points="36.516,72.815 36.516,72.346 34.699,72.346 34.699,72.815 35.315,72.815 33.806,76.92 
			32.207,72.735 32.077,72.346 30.967,72.346 30.967,72.815 31.667,72.815 33.533,77.74 33.549,77.779 33.996,77.779 35.816,72.815 
					"/>
		<path fill="#FFFFFF" d="M38.167,72.815h0.634v-0.47H37.21l-1.695,4.91h-0.684v0.47h1.221v-0.409l-0.001-0.01l0.541-1.579h2.036
			l0.538,1.528h-0.634v0.47h1.864v-0.47h-0.669L38.167,72.815z M36.757,75.258l0.86-2.502l0.853,2.502H36.757z"/>
		<polygon fill="#FFFFFF" points="45.4,76.653 43.62,72.346 42.172,72.346 42.172,72.815 42.854,72.815 42.854,77.726 
			43.966,77.726 43.966,77.256 43.338,77.256 43.338,72.926 45.281,77.726 45.448,77.726 47.406,72.939 47.406,77.726 48.62,77.726 
			48.62,77.256 47.962,77.256 47.962,72.815 48.62,72.815 48.62,72.346 47.164,72.346 		"/>
		<path fill="#FFFFFF" d="M52.215,72.815h0.633v-0.47h-1.591l-1.696,4.91h-0.683v0.47h1.221v-0.409l-0.001-0.01l0.541-1.579h2.036
			l0.538,1.528H52.58v0.47h1.863v-0.47h-0.668L52.215,72.815z M50.805,75.258l0.859-2.502l0.854,2.502H50.805z"/>
		<path fill="#FFFFFF" d="M56.512,72.346h-2.313v0.47h0.728v4.91h1.578c1.059,0,1.811-0.273,2.24-0.813
			c0.419-0.541,0.632-1.171,0.632-1.873c0-0.791-0.237-1.446-0.706-1.945C58.206,72.598,57.48,72.346,56.512,72.346z M56.566,77.256
			H55.48v-4.44h1.07c0.719,0,1.285,0.195,1.685,0.579c0.389,0.384,0.585,0.937,0.585,1.645c0,0.729-0.191,1.287-0.568,1.661
			C57.867,77.068,57.301,77.256,56.566,77.256z"/>
		<path fill="#FFFFFF" d="M62.715,72.261c-0.777,0-1.43,0.267-1.939,0.792c-0.511,0.516-0.77,1.182-0.77,1.979
			c0,0.792,0.259,1.46,0.769,1.985c0.511,0.521,1.163,0.785,1.94,0.785s1.431-0.267,1.939-0.792c0.511-0.516,0.77-1.181,0.77-1.979
			c0-0.793-0.259-1.461-0.77-1.986C64.141,72.524,63.487,72.261,62.715,72.261z M62.715,77.303c-0.62,0-1.139-0.218-1.543-0.647
			c-0.406-0.425-0.611-0.972-0.611-1.623c0-0.652,0.205-1.201,0.611-1.631c0.404-0.425,0.924-0.641,1.543-0.641
			c0.625,0,1.146,0.218,1.551,0.647c0.4,0.43,0.604,0.977,0.604,1.624c0,0.656-0.205,1.205-0.611,1.631
			C63.864,77.088,63.346,77.303,62.715,77.303z"/>
		<polygon fill="#FFFFFF" points="71.767,72.815 71.767,72.346 70.311,72.346 68.547,76.653 66.768,72.346 65.318,72.346 
			65.318,72.815 66,72.815 66,77.726 67.113,77.726 67.113,77.256 66.484,77.256 66.484,72.926 68.428,77.726 68.596,77.726 
			70.554,72.939 70.554,77.726 71.767,77.726 71.767,77.256 71.107,77.256 71.107,72.815 		"/>
	</g>
</g>
</svg>
