<?xml version="1.0" encoding="iso-8859-1"?>
<!-- Generator: Adobe Illustrator 18.0.0, SVG Export Plug-In . SVG Version: 6.00 Build 0)  -->
<!DOCTYPE svg PUBLIC "-//W3C//DTD SVG 1.1//EN" "http://www.w3.org/Graphics/SVG/1.1/DTD/svg11.dtd">
<svg version="1.1" id="Capa_1" xmlns="http://www.w3.org/2000/svg" xmlns:xlink="http://www.w3.org/1999/xlink" x="0px" y="0px"
	 viewBox="0 0 460.538 460.538" style="enable-background:new 0 0 460.538 460.538;" xml:space="preserve">
<g>
	<path d="M76.442,305.309h41.917c6.308-10.168,14.873-19.175,25.747-26.257c-1.82-2.642-3.131-5.642-3.792-8.849l-14.504-70.914
		l31.373,62.438c2.725,5.423,7.982,9.121,14.006,9.853l71.87,8.733c9.955,1.205,18.969-5.884,20.174-15.804
		c1.207-9.935-5.868-18.967-15.803-20.174l-62.225-7.561l-27.011-53.757l20.77,23.233l3.188-11.128
		c4.11-14.345-4.187-29.305-18.532-33.415l-44.197-12.662c-7.243-2.075-15.022-1.032-21.463,2.878
		c-6.44,3.91-10.955,10.331-12.456,17.713l-8.392,41.282c11.832,10.122,17.505,26.47,13.203,42.547L76.442,305.309z"/>
	<circle cx="163.071" cy="98.871" r="39.997"/>
	<path d="M450.538,381.674h-22.637l-31.32,20h53.957c5.523,0,10-4.478,10-10S456.061,381.674,450.538,381.674z"/>
	<path d="M10,381.674c-5.481,0-10,4.476-10,10c0,5.522,4.477,10,10,10h323.822l-26.495-20H10z"/>
	<path d="M358.132,334.029c56.465-36.056,52.399-33.579,55.308-35.026c-4.947-15.31-19.261-26.43-36.229-26.535
		c-0.081,0-0.161-0.001-0.242-0.001c-21.054,0.001-38.188,17.003-38.319,38.087c-0.049,7.883,2.289,15.224,6.332,21.341
		L358.132,334.029z"/>
	<path d="M442.768,349.518c8.559-6.541,10.473-19.005,3.603-27.88c-6.275-8.112-17.702-10.067-26.323-4.567
		c-0.001,0.001-0.002,0.001-0.003,0.002l-57.792,36.904l-68.963-30.466l27.351,4.437c0.041-8.06,0.525-13.275-2.512-20.715
		c-3.368-8.252-9.918-15.095-18.518-18.709c-7.734-3.25-12.731-2.683-25.755-2.749c-7.762,9.452-20.033,14.863-33.074,13.279
		c-8.548-1.039-67.567-8.209-74.579-9.062c-15.947,6.399-28.964,19.014-35.688,35.317H50.387h0l20.607-77.014
		c3.099-11.58-3.761-23.517-15.386-26.628c-11.606-3.106-23.525,3.788-26.628,15.386L1.049,341.434
		c-1.734,6.482-0.389,13.461,3.757,18.862c4.116,5.362,10.491,8.505,17.25,8.505c142.183,0,130.147-0.456,268.576,0.27
		l-10.833-8.177l76.153,33.642c6.259,2.763,13.445,1.993,18.679-1.425C446.346,347.317,441.768,350.282,442.768,349.518z"/>
</g>
<g>
</g>
<g>
</g>
<g>
</g>
<g>
</g>
<g>
</g>
<g>
</g>
<g>
</g>
<g>
</g>
<g>
</g>
<g>
</g>
<g>
</g>
<g>
</g>
<g>
</g>
<g>
</g>
<g>
</g>
</svg>
