<?xml version="1.0" encoding="utf-8"?>
<!-- Generator: Adobe Illustrator 16.0.0, SVG Export Plug-In . SVG Version: 6.00 Build 0)  -->
<!DOCTYPE svg PUBLIC "-//W3C//DTD SVG 1.1//EN" "http://www.w3.org/Graphics/SVG/1.1/DTD/svg11.dtd">
<svg version="1.1" id="Layer_1" xmlns="http://www.w3.org/2000/svg" xmlns:xlink="http://www.w3.org/1999/xlink" x="0px" y="0px"
	 width="50px" height="76.146px" viewBox="0 0 50 76.146" enable-background="new 0 0 50 76.146" xml:space="preserve">
<g>
	<g>
		<path fill="#CE3727" d="M24.507,54.648c0,0,0.066-0.199,0.189-0.572c0.125-0.365,0.311-0.899,0.546-1.582
			c0.233-0.676,0.506-1.49,0.783-2.414c0.277-0.922,0.561-1.957,0.761-3.063c0.205-1.105,0.327-2.283,0.295-3.475
			c-0.013-0.594-0.067-1.189-0.168-1.785l-0.017-0.111l-0.004-0.027c-0.002-0.021,0.012,0.143,0.004,0.064l-0.004-0.018
			l-0.015-0.068l-0.058-0.271c-0.032-0.181-0.067-0.363-0.104-0.548c-0.076-0.319-0.158-0.562-0.234-0.848
			c-0.385-1.224-0.918-2.457-1.59-3.644c-0.162-0.3-0.349-0.59-0.53-0.881l-0.12-0.193l-0.168-0.25l-0.33-0.5
			c-0.405-0.578-0.839-1.213-1.301-1.836c-1.813-2.505-3.846-5.094-5.443-7.892c-0.806-1.393-1.493-2.841-2.002-4.29
			c-0.509-1.451-0.804-2.916-0.892-4.272c-0.085-1.36,0.041-2.603,0.273-3.653c0.233-1.055,0.582-1.914,0.896-2.593
			c0.333-0.673,0.628-1.172,0.858-1.495c0.228-0.319,0.349-0.491,0.349-0.491s-0.015,0.209-0.039,0.601
			c-0.037,0.384-0.058,0.951-0.07,1.647c0.01,0.7,0.028,1.53,0.169,2.444c0.14,0.913,0.371,1.903,0.752,2.92
			c0.376,1.021,0.884,2.072,1.54,3.142c0.65,1.073,1.434,2.164,2.302,3.293c0.883,1.123,1.839,2.285,2.835,3.502
			c0.993,1.22,2.017,2.489,3.005,3.853c0.492,0.679,0.969,1.378,1.453,2.139l0.316,0.516l0.154,0.258l0.037,0.063l0.021,0.038
			l0.041,0.076l0.084,0.149c0.222,0.398,0.446,0.793,0.633,1.209c0.785,1.636,1.345,3.361,1.604,5.096
			c0.06,0.458,0.125,0.951,0.156,1.367c0.006,0.187,0.015,0.371,0.021,0.556l0.006,0.276l0.002,0.066v0.02
			c-0.007-0.067,0.011,0.109,0.009,0.101l-0.002,0.041l-0.006,0.16c-0.02,0.43-0.021,0.854-0.074,1.267
			c-0.022,0.206-0.045,0.411-0.065,0.616c-0.037,0.199-0.074,0.396-0.11,0.595c-0.301,1.575-0.832,2.959-1.427,4.137
			c-0.603,1.18-1.267,2.162-1.896,2.983c-0.636,0.82-1.229,1.488-1.744,2.013c-0.508,0.524-0.937,0.918-1.229,1.174
			C24.666,54.512,24.507,54.648,24.507,54.648z"/>
		<path fill="#F9A11E" d="M24.519,54.648c0,0,0.021-0.158,0.062-0.457c0.042-0.295,0.119-0.734,0.191-1.279
			c0.038-0.268,0.081-0.565,0.128-0.891c0.036-0.322,0.075-0.672,0.116-1.043c0.051-0.371,0.074-0.764,0.093-1.17
			c0.014-0.205,0.027-0.412,0.04-0.625c-0.001-0.211-0.004-0.428-0.008-0.646c-0.006-0.219,0.005-0.438-0.004-0.664
			c-0.022-0.221-0.045-0.444-0.066-0.674c-0.034-0.225-0.019-0.459-0.078-0.682c-0.046-0.229-0.091-0.455-0.138-0.686
			c-0.022-0.112-0.045-0.229-0.068-0.347l-0.108-0.334c-0.072-0.223-0.143-0.446-0.215-0.676l-0.027-0.084l-0.006-0.022
			c0.033,0.106,0.006,0.022,0.013,0.043l-0.007-0.013l-0.02-0.049l-0.083-0.194l-0.162-0.398c-0.107-0.232-0.208-0.413-0.312-0.625
			c-0.253-0.438-0.508-0.883-0.812-1.312c-0.154-0.211-0.299-0.428-0.474-0.631c-0.161-0.209-0.326-0.418-0.507-0.616
			c-0.17-0.207-0.361-0.397-0.547-0.595l-0.127-0.129l-0.166-0.162l-0.326-0.328c-0.4-0.384-0.835-0.794-1.286-1.19
			c-0.915-0.822-1.83-1.645-2.73-2.455c-0.46-0.416-0.915-0.84-1.354-1.28c-0.442-0.433-0.88-0.879-1.29-1.337
			c-0.83-0.914-1.58-1.883-2.196-2.883c-0.616-0.998-1.076-2.042-1.366-3.036c-0.289-0.997-0.402-1.944-0.408-2.766
			c-0.004-0.825,0.109-1.526,0.227-2.086c0.128-0.56,0.271-0.982,0.38-1.265c0.106-0.284,0.169-0.43,0.169-0.43
			s0.019,0.159,0.053,0.458c0.018,0.295,0.093,0.728,0.178,1.257c0.105,0.528,0.236,1.157,0.475,1.833
			c0.236,0.677,0.558,1.4,0.997,2.125c0.438,0.726,0.983,1.458,1.646,2.178c0.659,0.723,1.423,1.438,2.258,2.163
			c0.427,0.356,0.853,0.729,1.307,1.097c0.456,0.373,0.918,0.748,1.384,1.125c0.948,0.764,1.912,1.571,2.877,2.434
			c0.477,0.435,0.942,0.888,1.428,1.375l0.323,0.338l0.157,0.17c0.089,0.094,0.123,0.141,0.186,0.212
			c0.229,0.265,0.457,0.524,0.662,0.802c0.436,0.539,0.806,1.122,1.144,1.713c0.177,0.289,0.317,0.603,0.474,0.898
			c0.147,0.303,0.268,0.619,0.396,0.924c0.115,0.33,0.242,0.684,0.335,0.988l0.104,0.414l0.051,0.207l0.013,0.053l0.003,0.014
			l0.021,0.066l0.006,0.029l0.019,0.121c0.046,0.321,0.093,0.643,0.14,0.955c0.021,0.155,0.043,0.313,0.063,0.467
			c0.006,0.154,0.002,0.309,0.003,0.461c-0.002,0.607,0.016,1.195-0.087,1.746c-0.04,0.274-0.079,0.545-0.115,0.811
			c-0.053,0.262-0.116,0.512-0.185,0.76c-0.063,0.24-0.127,0.479-0.188,0.713c-0.078,0.228-0.154,0.443-0.234,0.656
			c-0.159,0.424-0.301,0.824-0.482,1.18c-0.175,0.355-0.316,0.693-0.486,0.994c-0.172,0.297-0.326,0.566-0.47,0.813
			c-0.276,0.49-0.55,0.834-0.711,1.086C24.611,54.518,24.519,54.648,24.519,54.648z"/>
	</g>
	<g>
		<path fill="#7B5740" d="M6.907,60.441l-0.876,0.703c-0.231-0.24-0.441-0.42-0.63-0.537c-0.188-0.119-0.459-0.179-0.814-0.179
			c-0.389,0-0.704,0.089-0.945,0.265C3.4,60.869,3.28,61.093,3.28,61.371c0,0.24,0.105,0.451,0.316,0.638
			c0.211,0.184,0.571,0.383,1.079,0.604c0.508,0.218,0.903,0.421,1.188,0.609c0.283,0.188,0.516,0.396,0.697,0.623
			c0.183,0.229,0.317,0.469,0.406,0.721C7.055,64.817,7.1,65.086,7.1,65.367c0,0.657-0.239,1.219-0.718,1.682
			s-1.057,0.695-1.736,0.695c-0.662,0-1.248-0.183-1.755-0.543c-0.508-0.363-0.898-0.906-1.171-1.632l1.08-0.305
			c0.394,0.891,0.996,1.336,1.809,1.336c0.394,0,0.721-0.117,0.981-0.354c0.261-0.233,0.392-0.531,0.392-0.892
			c0-0.215-0.069-0.433-0.205-0.646c-0.138-0.217-0.308-0.396-0.51-0.535c-0.204-0.141-0.526-0.303-0.97-0.483
			c-0.444-0.182-0.784-0.349-1.023-0.5c-0.239-0.149-0.446-0.33-0.62-0.541c-0.175-0.207-0.303-0.416-0.384-0.623
			s-0.121-0.428-0.121-0.664c0-0.565,0.228-1.051,0.684-1.448c0.455-0.398,1.008-0.601,1.658-0.601c0.431,0,0.867,0.095,1.311,0.278
			C6.246,59.775,6.613,60.063,6.907,60.441z"/>
		<path fill="#7B5740" d="M8.105,63.471c0-1.143,0.431-2.119,1.292-2.936c0.862-0.816,1.897-1.226,3.106-1.226
			c1.181,0,2.197,0.412,3.05,1.233c0.854,0.818,1.279,1.797,1.279,2.926c0,1.197-0.421,2.207-1.264,3.033
			c-0.843,0.826-1.877,1.238-3.103,1.238c-1.21,0-2.239-0.416-3.088-1.248S8.105,64.654,8.105,63.471z M15.685,63.521
			c0-0.873-0.314-1.607-0.944-2.207c-0.629-0.598-1.403-0.896-2.323-0.896c-0.874,0-1.622,0.307-2.245,0.912
			c-0.623,0.606-0.935,1.338-0.935,2.19c0,0.862,0.319,1.597,0.959,2.192c0.641,0.599,1.425,0.896,2.352,0.896
			c0.853,0,1.589-0.305,2.209-0.916C15.376,65.086,15.685,64.359,15.685,63.521z"/>
		<path fill="#7B5740" d="M18.499,59.561h1.59c0.898,0,1.623,0.211,2.174,0.633c0.552,0.426,0.826,0.975,0.826,1.646
			c0,0.68-0.291,1.25-0.872,1.709c-0.582,0.459-1.466,0.684-2.649,0.67v3.256H18.5L18.499,59.561L18.499,59.561z M19.567,60.504
			v2.771c0.812-0.008,1.414-0.123,1.805-0.347c0.391-0.221,0.586-0.575,0.586-1.063c0-0.369-0.147-0.688-0.443-0.957
			C21.219,60.641,20.569,60.504,19.567,60.504z"/>
		<path fill="#7B5740" d="M24.643,59.561h1.082v3.043h3.781v-3.043h1.068v7.914h-1.068v-3.803h-3.781v3.803h-1.082V59.561
			L24.643,59.561z"/>
		<path fill="#7B5740" d="M32.271,59.561h1.066v7.914h-1.066V59.561z"/>
		<path fill="#7B5740" d="M34.605,59.561H35.8l1.945,3.188l1.922-3.188h1.199l-2.599,4.285v3.629h-1.08v-3.615L34.605,59.561z"/>
		<path fill="#7B5740" d="M44.543,59.256l3.736,8.219h-1.133l-0.918-2.023H42.87l-0.908,2.023h-1.124L44.543,59.256z M44.54,61.727
			l-1.267,2.822h2.547L44.54,61.727z"/>
		<path fill="#7B5740" d="M16.038,72.557l-0.311,0.25c-0.082-0.086-0.156-0.148-0.223-0.189s-0.163-0.063-0.289-0.063
			c-0.138,0-0.249,0.03-0.335,0.094s-0.128,0.142-0.128,0.24c0,0.084,0.037,0.159,0.111,0.225c0.075,0.064,0.202,0.138,0.383,0.214
			c0.18,0.077,0.32,0.149,0.421,0.217c0.1,0.065,0.183,0.143,0.247,0.223c0.064,0.079,0.111,0.165,0.144,0.256
			c0.031,0.088,0.047,0.184,0.047,0.282c0,0.233-0.084,0.433-0.254,0.597c-0.169,0.164-0.375,0.246-0.615,0.246
			c-0.234,0-0.441-0.063-0.621-0.191c-0.18-0.127-0.318-0.322-0.415-0.578l0.383-0.106c0.14,0.313,0.353,0.474,0.641,0.474
			c0.14,0,0.255-0.043,0.348-0.125c0.092-0.084,0.139-0.188,0.139-0.315c0-0.075-0.024-0.151-0.073-0.229
			c-0.048-0.076-0.108-0.139-0.181-0.188c-0.071-0.051-0.186-0.106-0.343-0.172c-0.157-0.065-0.278-0.123-0.363-0.18
			c-0.084-0.053-0.157-0.115-0.22-0.189c-0.062-0.073-0.106-0.146-0.135-0.221c-0.028-0.072-0.044-0.152-0.044-0.234
			c0-0.202,0.081-0.373,0.242-0.514c0.162-0.145,0.357-0.213,0.588-0.213c0.152,0,0.307,0.031,0.464,0.1
			C15.803,72.32,15.934,72.422,16.038,72.557z"/>
		<path fill="#7B5740" d="M18.458,72.25h0.384v1.723c0,0.256,0.061,0.453,0.184,0.592c0.122,0.141,0.296,0.209,0.521,0.209
			c0.223,0,0.396-0.063,0.521-0.191c0.123-0.127,0.186-0.311,0.186-0.543v-1.787h0.384v1.763c0,0.344-0.099,0.616-0.295,0.823
			c-0.196,0.205-0.456,0.308-0.782,0.308c-0.333,0-0.599-0.104-0.8-0.312c-0.2-0.209-0.301-0.52-0.301-0.924v-1.66H18.458
			L18.458,72.25z"/>
		<path fill="#7B5740" d="M23.081,72.244h0.378v2.805h-0.378V72.244z"/>
		<path fill="#7B5740" d="M25.797,72.244h1.715v0.385h-0.67v2.42h-0.379v-2.42h-0.666V72.244L25.797,72.244z"/>
		<path fill="#7B5740" d="M29.805,72.244h1.553v0.385h-1.174v0.699h1.174v0.379h-1.174v0.963h1.174v0.379h-1.553V72.244z"/>
		<path fill="#7B5740" d="M35.413,72.557l-0.31,0.25c-0.082-0.086-0.156-0.148-0.225-0.189s-0.164-0.063-0.29-0.063
			c-0.138,0-0.248,0.03-0.334,0.094s-0.129,0.142-0.129,0.24c0,0.084,0.036,0.159,0.11,0.225s0.201,0.138,0.384,0.214
			c0.183,0.077,0.319,0.149,0.421,0.217c0.102,0.065,0.184,0.143,0.248,0.223c0.063,0.079,0.109,0.165,0.145,0.256
			c0.029,0.088,0.047,0.184,0.047,0.282c0,0.233-0.084,0.433-0.254,0.597s-0.375,0.246-0.615,0.246
			c-0.234,0-0.441-0.063-0.621-0.191c-0.18-0.127-0.318-0.322-0.416-0.578l0.384-0.106c0.14,0.313,0.354,0.474,0.64,0.474
			c0.141,0,0.256-0.043,0.35-0.125c0.093-0.084,0.14-0.188,0.14-0.315c0-0.075-0.022-0.151-0.071-0.229
			c-0.05-0.076-0.109-0.139-0.182-0.188c-0.07-0.051-0.188-0.106-0.343-0.172c-0.158-0.063-0.279-0.123-0.363-0.18
			c-0.085-0.053-0.157-0.115-0.22-0.189c-0.063-0.073-0.107-0.146-0.137-0.221c-0.027-0.072-0.043-0.152-0.043-0.234
			c0-0.202,0.08-0.373,0.242-0.514c0.161-0.145,0.356-0.213,0.588-0.213c0.151,0,0.308,0.031,0.463,0.1
			C35.18,72.32,35.311,72.422,35.413,72.557z"/>
	</g>
</g>
</svg>
