<?xml version="1.0" encoding="utf-8"?>
<!-- Generator: Adobe Illustrator 16.0.0, SVG Export Plug-In . SVG Version: 6.00 Build 0)  -->
<!DOCTYPE svg PUBLIC "-//W3C//DTD SVG 1.1//EN" "http://www.w3.org/Graphics/SVG/1.1/DTD/svg11.dtd">
<svg version="1.1" id="Layer_1" xmlns="http://www.w3.org/2000/svg" xmlns:xlink="http://www.w3.org/1999/xlink" x="0px" y="0px"
	 width="250px" height="367px" viewBox="0 0 250 367" enable-background="new 0 0 250 367" xml:space="preserve">
<g>
	<g>
		<path fill="#CF3423" d="M123.045,255.455c0,0,0.263-0.791,0.751-2.268c0.497-1.449,1.232-3.57,2.167-6.273
			c0.926-2.68,2.006-5.908,3.104-9.568c1.101-3.658,2.22-7.756,3.017-12.141c0.812-4.382,1.299-9.055,1.168-13.766
			c-0.047-2.358-0.271-4.724-0.666-7.082l-0.062-0.441l-0.021-0.109c-0.006-0.088,0.049,0.565,0.021,0.258l-0.016-0.066
			l-0.055-0.268l-0.221-1.076c-0.133-0.717-0.271-1.439-0.406-2.168c-0.303-1.271-0.633-2.225-0.93-3.364
			c-1.527-4.851-3.644-9.737-6.312-14.443c-0.643-1.188-1.382-2.336-2.102-3.49l-0.477-0.766l-0.665-0.989l-1.309-1.982
			c-1.606-2.296-3.328-4.81-5.16-7.282c-7.188-9.936-15.241-20.198-21.577-31.284c-3.194-5.523-5.919-11.261-7.936-17.005
			c-2.016-5.749-3.185-11.559-3.534-16.934c-0.337-5.392,0.162-10.318,1.083-14.482c0.927-4.182,2.31-7.589,3.556-10.277
			c1.318-2.67,2.487-4.645,3.402-5.927c0.895-1.276,1.373-1.96,1.373-1.96s-0.057,0.829-0.154,2.383
			c-0.146,1.521-0.226,3.771-0.277,6.53c0.039,2.775,0.112,6.067,0.668,9.69c0.553,3.619,1.473,7.543,2.981,11.578
			c1.491,4.045,3.503,8.212,6.104,12.453c2.579,4.253,5.685,8.579,9.126,13.056c3.501,4.451,7.292,9.059,11.238,13.883
			c3.938,4.837,8,9.869,11.917,15.274c1.955,2.69,3.842,5.464,5.764,8.479l1.256,2.046l0.613,1.023l0.15,0.244l0.084,0.147
			l0.164,0.302l0.332,0.593c0.873,1.583,1.773,3.147,2.506,4.798c3.115,6.481,5.328,13.323,6.367,20.198
			c0.23,1.815,0.494,3.774,0.621,5.42c0.025,0.736,0.053,1.474,0.078,2.203l0.021,1.095l0.009,0.272v0.07
			c-0.029-0.266,0.037,0.434,0.03,0.395l-0.006,0.16l-0.021,0.641c-0.072,1.701-0.084,3.385-0.297,5.018
			c-0.091,0.819-0.181,1.631-0.265,2.439c-0.149,0.791-0.295,1.58-0.438,2.359c-1.189,6.247-3.295,11.729-5.654,16.399
			c-2.387,4.673-5.02,8.567-7.521,11.827c-2.51,3.254-4.861,5.898-6.908,7.974c-2.014,2.086-3.709,3.64-4.871,4.653
			C123.676,254.912,123.045,255.455,123.045,255.455z"/>
		<path fill="#F9A01B" d="M123.091,255.455c0,0,0.084-0.631,0.246-1.813c0.165-1.17,0.474-2.912,0.757-5.068
			c0.153-1.066,0.323-2.248,0.509-3.533c0.142-1.275,0.298-2.66,0.462-4.139c0.2-1.465,0.295-3.018,0.369-4.637
			c0.053-0.807,0.106-1.631,0.159-2.472c-0.006-0.836-0.02-1.688-0.032-2.562c-0.025-0.867,0.018-1.744-0.017-2.633
			c-0.089-0.875-0.176-1.768-0.267-2.675c-0.133-0.89-0.069-1.815-0.306-2.702c-0.182-0.894-0.361-1.799-0.547-2.711
			c-0.087-0.451-0.179-0.908-0.269-1.365l-0.43-1.33c-0.286-0.881-0.566-1.771-0.853-2.678l-0.107-0.336l-0.025-0.087
			c0.133,0.421,0.025,0.091,0.049,0.171l-0.023-0.047l-0.078-0.195l-0.329-0.777l-0.642-1.58c-0.428-0.926-0.829-1.635-1.239-2.479
			c-1-1.736-2.013-3.498-3.214-5.19c-0.611-0.838-1.187-1.702-1.878-2.504c-0.639-0.832-1.293-1.66-2.009-2.449
			c-0.673-0.817-1.432-1.573-2.171-2.347l-0.502-0.516l-0.659-0.646l-1.293-1.297c-1.586-1.521-3.308-3.146-5.097-4.717
			c-3.629-3.263-7.253-6.522-10.825-9.734c-1.824-1.653-3.627-3.332-5.368-5.077c-1.756-1.719-3.488-3.484-5.115-5.303
			c-3.29-3.622-6.264-7.466-8.708-11.427c-2.441-3.958-4.266-8.094-5.415-12.036c-1.147-3.953-1.595-7.707-1.616-10.964
			c-0.017-3.273,0.43-6.053,0.897-8.272c0.508-2.221,1.076-3.894,1.506-5.016c0.422-1.125,0.671-1.703,0.671-1.703
			s0.07,0.63,0.206,1.813c0.072,1.171,0.37,2.886,0.706,4.984c0.416,2.095,0.938,4.586,1.881,7.269
			c0.937,2.684,2.211,5.551,3.953,8.425c1.735,2.876,3.899,5.779,6.525,8.636c2.614,2.863,5.644,5.7,8.952,8.574
			c1.693,1.413,3.379,2.888,5.179,4.343c1.811,1.476,3.642,2.966,5.487,4.467c3.757,3.022,7.581,6.225,11.405,9.644
			c1.889,1.725,3.735,3.52,5.66,5.454l1.282,1.34l0.624,0.676c0.348,0.369,0.486,0.552,0.734,0.839
			c0.905,1.048,1.809,2.077,2.626,3.18c1.726,2.136,3.194,4.445,4.53,6.787c0.705,1.146,1.265,2.386,1.877,3.563
			c0.588,1.201,1.06,2.457,1.574,3.666c0.459,1.306,0.961,2.705,1.326,3.912l0.42,1.648l0.197,0.822l0.047,0.205l0.014,0.049
			l0.078,0.268l0.021,0.122l0.072,0.481c0.186,1.272,0.369,2.537,0.551,3.779c0.084,0.623,0.168,1.237,0.254,1.849
			c0.023,0.614,0.008,1.227,0.012,1.829c-0.008,2.414,0.057,4.742-0.348,6.927c-0.156,1.088-0.312,2.16-0.455,3.21
			c-0.211,1.033-0.471,2.025-0.727,2.999c-0.25,0.965-0.502,1.907-0.744,2.83c-0.308,0.899-0.613,1.766-0.931,2.608
			c-0.637,1.678-1.19,3.267-1.916,4.672c-0.696,1.418-1.266,2.756-1.938,3.94c-0.676,1.179-1.295,2.255-1.854,3.229
			c-1.098,1.94-2.183,3.301-2.817,4.307C123.459,254.936,123.091,255.455,123.091,255.455z"/>
	</g>
	<g>
		<path fill="#7A563F" d="M53.275,278.424l-3.472,2.783c-0.918-0.951-1.748-1.662-2.494-2.132c-0.745-0.468-1.823-0.7-3.23-0.7
			c-1.54,0-2.79,0.348-3.748,1.045c-0.959,0.694-1.437,1.59-1.437,2.688c0,0.947,0.417,1.785,1.255,2.518
			c0.837,0.729,2.263,1.523,4.278,2.391c2.015,0.865,3.583,1.672,4.707,2.42c1.122,0.746,2.045,1.568,2.767,2.472
			c0.721,0.901,1.257,1.854,1.608,2.854c0.353,1,0.53,2.059,0.53,3.174c0,2.609-0.948,4.832-2.846,6.67
			c-1.896,1.836-4.189,2.757-6.883,2.757c-2.626,0-4.946-0.72-6.956-2.156c-2.013-1.437-3.56-3.59-4.643-6.463l4.284-1.207
			c1.56,3.528,3.948,5.295,7.167,5.295c1.56,0,2.857-0.465,3.892-1.399c1.034-0.935,1.552-2.11,1.552-3.535
			c0-0.851-0.272-1.707-0.814-2.564c-0.542-0.859-1.216-1.566-2.021-2.123c-0.806-0.556-2.086-1.195-3.842-1.916
			c-1.758-0.72-3.11-1.379-4.058-1.979c-0.946-0.602-1.767-1.313-2.459-2.145c-0.691-0.826-1.199-1.648-1.521-2.471
			c-0.319-0.82-0.48-1.699-0.48-2.633c0-2.248,0.902-4.164,2.709-5.746c1.807-1.584,3.998-2.375,6.575-2.375
			c1.708,0,3.438,0.369,5.195,1.107C50.648,275.791,52.11,276.914,53.275,278.424z"/>
		<path fill="#7A563F" d="M58.029,290.43c0-4.527,1.706-8.406,5.121-11.639c3.416-3.232,7.521-4.85,12.313-4.85
			c4.68,0,8.71,1.627,12.092,4.887c3.382,3.254,5.073,7.122,5.073,11.602c0,4.742-1.67,8.75-5.011,12.021
			c-3.342,3.273-7.441,4.91-12.301,4.91c-4.796,0-8.875-1.647-12.24-4.946C59.711,299.117,58.029,295.123,58.029,290.43z
			 M88.074,290.627c0-3.461-1.247-6.377-3.744-8.746c-2.494-2.369-5.564-3.555-9.21-3.555c-3.464,0-6.432,1.207-8.902,3.617
			c-2.47,2.41-3.706,5.305-3.706,8.684c0,3.43,1.269,6.326,3.805,8.697c2.537,2.371,5.645,3.555,9.321,3.555
			c3.382,0,6.3-1.209,8.755-3.629C86.848,296.832,88.074,293.955,88.074,290.627z"/>
		<path fill="#7A563F" d="M99.229,274.928h6.305c3.562,0,6.435,0.836,8.619,2.512c2.183,1.677,3.275,3.853,3.275,6.525
			c0,2.692-1.155,4.951-3.46,6.771c-2.308,1.824-5.809,2.711-10.504,2.66v12.904h-4.235V274.928z M103.465,278.672v10.98
			c3.218-0.029,5.603-0.486,7.154-1.365c1.551-0.878,2.326-2.285,2.326-4.225c0-1.461-0.586-2.726-1.76-3.791
			C110.013,279.205,107.438,278.672,103.465,278.672z"/>
		<path fill="#7A563F" d="M123.584,274.928h4.285v12.065h14.994v-12.065h4.236v31.375h-4.234V291.23h-14.996v15.071h-4.285V274.928
			L123.584,274.928z"/>
		<path fill="#7A563F" d="M153.824,274.928h4.236v31.375h-4.236V274.928z"/>
		<path fill="#7A563F" d="M163.086,274.928h4.738l7.711,12.631l7.619-12.631h4.754l-10.295,16.992v14.383h-4.283v-14.334
			L163.086,274.928z"/>
		<path fill="#7A563F" d="M202.477,273.721l14.813,32.582h-4.492l-3.641-8.029h-13.313l-3.6,8.029h-4.459L202.477,273.721z
			 M202.465,283.514l-5.021,11.189h10.095L202.465,283.514z"/>
		<path fill="#7A563F" d="M89.473,326.451l-1.229,0.985c-0.325-0.338-0.62-0.59-0.884-0.756c-0.265-0.164-0.646-0.25-1.145-0.25
			c-0.547,0-0.989,0.125-1.328,0.371c-0.34,0.248-0.508,0.563-0.508,0.951c0,0.338,0.147,0.635,0.442,0.896
			c0.297,0.256,0.803,0.538,1.516,0.846c0.715,0.307,1.271,0.592,1.669,0.856c0.397,0.265,0.725,0.558,0.979,0.875
			c0.256,0.32,0.445,0.658,0.571,1.013c0.123,0.354,0.186,0.729,0.186,1.125c0,0.924-0.335,1.711-1.007,2.36
			c-0.672,0.652-1.485,0.978-2.438,0.978c-0.931,0-1.752-0.254-2.464-0.765c-0.713-0.508-1.261-1.27-1.646-2.289l1.52-0.428
			c0.552,1.25,1.398,1.875,2.537,1.875c0.554,0,1.013-0.164,1.379-0.496c0.367-0.328,0.549-0.746,0.549-1.25
			c0-0.303-0.096-0.606-0.287-0.912c-0.192-0.303-0.431-0.553-0.716-0.75c-0.285-0.196-0.739-0.424-1.362-0.68
			c-0.622-0.256-1.101-0.486-1.438-0.701c-0.335-0.211-0.625-0.465-0.871-0.758c-0.244-0.293-0.425-0.584-0.537-0.875
			c-0.113-0.291-0.171-0.604-0.171-0.935c0-0.797,0.32-1.477,0.96-2.034c0.64-0.562,1.416-0.845,2.328-0.845
			c0.605,0,1.219,0.133,1.841,0.396C88.542,325.516,89.06,325.916,89.473,326.451z"/>
		<path fill="#7A563F" d="M99.068,325.23h1.52v6.829c0,1.015,0.242,1.796,0.728,2.349s1.173,0.828,2.063,0.828
			c0.884,0,1.571-0.254,2.063-0.765c0.491-0.508,0.737-1.227,0.737-2.151v-7.09h1.519v6.985c0,1.36-0.39,2.451-1.165,3.265
			c-0.777,0.813-1.81,1.221-3.102,1.221c-1.32,0-2.376-0.412-3.171-1.238c-0.793-0.826-1.191-2.045-1.191-3.655L99.068,325.23
			L99.068,325.23z"/>
		<path fill="#7A563F" d="M117.392,325.213h1.502v11.112h-1.502V325.213z"/>
		<path fill="#7A563F" d="M128.158,325.213h6.795v1.519h-2.65v9.596h-1.5v-9.596h-2.645V325.213L128.158,325.213z"/>
		<path fill="#7A563F" d="M144.047,325.213h6.158v1.519h-4.658v2.772h4.658v1.502h-4.658v3.817h4.658v1.503h-6.158V325.213z"/>
		<path fill="#7A563F" d="M166.283,326.451l-1.227,0.985c-0.328-0.338-0.623-0.59-0.886-0.756c-0.269-0.164-0.647-0.25-1.146-0.25
			c-0.545,0-0.986,0.125-1.326,0.371c-0.34,0.248-0.512,0.563-0.512,0.951c0,0.338,0.147,0.635,0.444,0.896
			c0.296,0.256,0.802,0.538,1.517,0.846c0.717,0.307,1.271,0.592,1.67,0.856c0.396,0.265,0.723,0.558,0.979,0.875
			c0.256,0.32,0.445,0.658,0.57,1.013c0.123,0.354,0.188,0.729,0.188,1.125c0,0.924-0.336,1.711-1.01,2.36
			c-0.67,0.652-1.484,0.978-2.438,0.978c-0.93,0-1.75-0.254-2.465-0.765c-0.711-0.508-1.261-1.27-1.646-2.289l1.521-0.428
			c0.553,1.25,1.397,1.875,2.537,1.875c0.553,0,1.012-0.164,1.379-0.496c0.366-0.328,0.549-0.746,0.549-1.25
			c0-0.303-0.096-0.606-0.285-0.912c-0.193-0.303-0.432-0.553-0.717-0.75c-0.287-0.196-0.74-0.424-1.361-0.68
			c-0.623-0.256-1.102-0.486-1.438-0.701c-0.336-0.211-0.625-0.465-0.871-0.758c-0.244-0.293-0.424-0.584-0.537-0.875
			c-0.115-0.291-0.17-0.604-0.17-0.935c0-0.797,0.315-1.477,0.959-2.034c0.641-0.563,1.416-0.845,2.33-0.845
			c0.604,0,1.215,0.133,1.84,0.396C165.354,325.516,165.871,325.916,166.283,326.451z"/>
	</g>
</g>
</svg>
